<svg id="Business-coin-cryptocurrency-digital-increase-money" height="512" viewBox="0 0 64 64" width="512" xmlns="http://www.w3.org/2000/svg"><path d="m61 55v1a5 5 0 0 1 -5 5h-48a5 5 0 0 1 -5-5v-1a2.006 2.006 0 0 1 2-2h54a2.006 2.006 0 0 1 2 2z" fill="#898890"/><path d="m39 53v2a2.006 2.006 0 0 1 -2 2h-10a2.006 2.006 0 0 1 -2-2v-2z" fill="#e0e0e2"/><path d="m59 20.06v32.94h-54v-32.94a2.032 2.032 0 0 1 2-2.06h50a2.032 2.032 0 0 1 2 2.06z" fill="#bdfdff"/><path d="m17 41h10v8h-10z" fill="#2488ff"/><path d="m27 36h10v13h-10z" fill="#006df0"/><path d="m47 32v17h-10v-13-4z" fill="#005ece"/><path d="m52 16a10 10 0 0 1 -19.81 1.97 10.53 10.53 0 0 1 -.19-1.97 10 10 0 0 1 20 0z" fill="#ffda44"/><path d="m60 52.18v-32.12a3.035 3.035 0 0 0 -3-3.06h-4.05c.03-.33.05-.66.05-1a11 11 0 0 0 -22 0c0 .34.02.67.05 1h-24.05a3.035 3.035 0 0 0 -3 3.06v32.12a3.01 3.01 0 0 0 -2 2.82v1a6 6 0 0 0 6 6h48a6 6 0 0 0 6-6v-1a3.01 3.01 0 0 0 -2-2.82zm-18-45.18a9 9 0 1 1 -9 9 9.014 9.014 0 0 1 9-9zm-36 13.06a1.03 1.03 0 0 1 1-1.06h24.43a10.983 10.983 0 0 0 21.14 0h4.43a1.03 1.03 0 0 1 1 1.06v31.94h-52zm32 33.94v1a1 1 0 0 1 -1 1h-10a1 1 0 0 1 -1-1v-1zm22 2a4 4 0 0 1 -4 4h-48a4 4 0 0 1 -4-4v-1a1 1 0 0 1 1-1h19v1a3.009 3.009 0 0 0 3 3h10a3.009 3.009 0 0 0 3-3v-1h19a1 1 0 0 1 1 1z"/><path d="m29 25-2.28 5.53-1.22-1.58-8.89 6.84-1.22-1.58 8.89-6.84-1.21-1.58z"/><path d="m47 14a3.01 3.01 0 0 0 -2-2.82v-1.18h-2v1h-2v-1h-2v1h-2v2h1v6h-1v2h2v1h2v-1h2v1h2v-1.18a3.01 3.01 0 0 0 2-2.82 2.974 2.974 0 0 0 -.78-2 2.974 2.974 0 0 0 .78-2zm-3 5h-4v-2h4a1 1 0 0 1 0 2zm0-4h-4v-2h4a1 1 0 0 1 0 2z"/><path d="m48 48v-16a1 1 0 0 0 -1-1h-10a1 1 0 0 0 -1 1v3h-9a1 1 0 0 0 -1 1v4h-9a1 1 0 0 0 -1 1v7h-4v2h41v-2zm-22 0h-8v-6h8zm10 0h-8v-11h8zm10 0h-8v-15h8z"/><path d="m13 21h-4a1 1 0 0 0 -1 1v4h2v-3h3z"/></svg>